<svg version="1.1" xmlns="http://www.w3.org/2000/svg" style="display: block;" viewBox="0 0 2048 1152" width="1920" height="1080" preserveAspectRatio="none">
<path transform="translate(0,0)" fill="rgb(255,255,255)" d="M 0 0 L 2048 0 L 2048 1152 L 0 1152 L 0 0 z"/>
<path transform="translate(0,0)" fill="rgb(25,126,232)" d="M 863.981 268.127 C 883.477 267.319 912.333 268.83 932.716 269.26 L 1055.55 271.677 C 1074.12 272.13 1092.68 272.489 1111.24 272.754 C 1116.59 272.82 1144.72 272.922 1146.32 273.946 C 1157.44 281.083 1187.93 313.247 1196.63 321.952 L 1280.42 405.757 L 1337.48 462.836 C 1347.93 473.292 1360.13 484.483 1368.88 495.174 C 1382.91 512.34 1367.79 522.109 1352.01 525.956 C 1350.16 526.408 1350.44 542.92 1350.45 545.541 L 1350.62 675.725 C 1350.66 696.676 1351.24 718.05 1350.07 738.893 C 1349.47 749.618 1340.08 754.367 1330.52 754.735 C 1315.55 755.312 1300.73 755.16 1285.76 755.16 L 1203.88 755.158 L 944.5 755.124 L 774.866 755.189 C 746.901 755.191 718.877 755.536 690.909 754.765 C 681.674 754.511 676.91 751.053 672.768 742.649 C 670.283 737.605 671.029 729.05 674.841 724.753 C 683.402 715.101 692.913 705.993 702.082 696.845 L 754.815 644.26 L 928.837 470.577 C 888.412 471.148 847.928 470.753 807.497 470.772 C 788.307 470.781 713.329 473.363 699.559 468.206 C 696.192 466.945 693.448 463.143 692.062 459.887 C 689.921 454.857 690.111 448.999 692.284 444.004 C 694.302 439.364 698.509 434.704 701.873 430.918 C 728.003 401.504 756.829 373.8 784.165 345.464 C 806.509 322.304 828.314 297.004 852.168 275.507 C 855.898 272.145 859.315 269.983 863.981 268.127 z"/>
<path transform="translate(0,0)" fill="rgb(255,255,255)" d="M 1136.97 314.771 C 1139.84 316.767 1149.58 326.779 1152.45 329.636 L 1188.79 366.221 L 1316 493.344 L 1316 718.343 C 1271.29 719.02 1224.92 718.402 1180.11 718.404 L 914.5 718.412 L 732.813 718.455 L 862.711 588.657 L 1136.97 314.771 z"/>
<path transform="translate(0,0)" fill="rgb(25,126,232)" d="M 1076.82 448.238 C 1092.12 447.31 1116.7 446.657 1131.14 450.179 C 1140.44 454.131 1144.24 468.984 1143.65 477.192 C 1142.14 498.123 1150.73 523.796 1126.09 533.033 C 1115.62 533.593 1081.64 534.106 1073.56 531.733 C 1054.32 526.082 1058.78 477.441 1062.13 462.306 C 1063.69 455.294 1070.65 450.972 1076.82 448.238 z"/>
<path transform="translate(0,0)" fill="rgb(25,126,232)" d="M 1075.97 546.13 C 1087.64 545.569 1121.72 544.723 1130.87 547.75 C 1148.89 553.707 1144.53 602.235 1141.21 616.818 C 1139.6 623.911 1133.14 627.953 1126.85 630.7 C 1115.58 631.351 1082.32 631.762 1073.31 629.301 C 1054.31 624.107 1059.04 574.969 1061.99 560.254 C 1063.39 553.29 1069.92 549.003 1075.97 546.13 z"/>
<path transform="translate(0,0)" fill="rgb(25,126,232)" d="M 1180.09 448.132 C 1185.49 448.059 1190.79 448.011 1196.31 447.93 C 1214.51 447.665 1246.02 443.314 1245.85 470.835 C 1245.71 493.125 1253.33 522.504 1229.02 532.988 C 1213.55 533.915 1190.03 534.436 1175.26 531.415 C 1166.27 527.821 1161.81 513.365 1162.45 505.48 C 1164.23 483.612 1154.57 457.923 1180.09 448.132 z"/>
<path transform="translate(0,0)" fill="rgb(25,126,232)" d="M 1178.88 546.094 C 1193.19 545.584 1218.56 544.613 1232.41 547.307 C 1236.13 548.03 1241.36 554.024 1242.99 558.033 C 1247.97 570.336 1247.41 603.624 1243.96 616.303 C 1241.9 623.921 1236.14 627.607 1229.91 630.512 C 1215.83 631.989 1188.22 631.803 1174.61 628.848 C 1166.15 625.537 1161.88 611.012 1162.48 603.611 C 1164.2 582.559 1154.89 556.286 1178.88 546.094 z"/>
<path transform="translate(0,0)" fill="rgb(255,255,255)" d="M 874.336 305.008 C 897.124 304.817 922.479 305.808 945.481 306.248 L 1090.66 309.108 L 965.245 434.359 C 945.92 432.877 911.004 433.893 890.573 433.898 L 749.77 433.89 L 874.336 305.008 z"/>
<path transform="translate(0,0)" fill="rgb(25,126,232)" d="M 1152.08 794.9 L 1172.11 794.927 C 1178.11 809.564 1184.93 827.636 1191.6 841.627 C 1198.07 826.761 1204.42 810.039 1210.54 794.889 L 1230.63 794.957 C 1233.11 813.098 1230.59 834.237 1232.75 852.258 C 1234.62 867.89 1222.61 872.611 1212.33 865.098 C 1210.02 861.03 1213.13 857.01 1211.33 853.513 L 1204.72 853.839 C 1198.12 864.456 1203.48 868.106 1195.49 872.158 C 1189.49 873.2 1184.28 866.168 1176.49 863.892 L 1181.28 861.918 C 1180.3 858.905 1179.52 856.307 1178.72 853.238 C 1175.06 852.312 1175.62 852.492 1172.63 853.936 C 1171.95 858.693 1172.3 861.434 1169.34 865.075 C 1164.7 868.326 1157.41 866.467 1152.66 864.169 C 1150.9 860.212 1152 803.323 1152.08 794.9 z"/>
<path transform="translate(0,0)" fill="rgb(211,210,212)" d="M 1230.63 794.957 C 1233.11 813.098 1230.59 834.237 1232.75 852.258 C 1234.62 867.89 1222.61 872.611 1212.33 865.098 C 1210.02 861.03 1213.13 857.01 1211.33 853.513 L 1204.72 853.839 C 1198.12 864.456 1203.48 868.106 1195.49 872.158 C 1189.49 873.2 1184.28 866.168 1176.49 863.892 L 1181.28 861.918 C 1180.3 858.905 1179.52 856.307 1178.72 853.238 L 1180.39 852.78 L 1184.61 863.924 L 1198.04 863.951 C 1202.89 850.712 1208.02 837.58 1213.43 824.563 C 1213.77 837.415 1213.61 850.997 1213.64 863.912 L 1230.25 863.917 C 1230.3 844.349 1229.37 813.784 1230.63 794.957 z"/>
<path transform="translate(0,0)" fill="rgb(211,210,212)" d="M 1168.96 863.918 C 1168.99 850.568 1169.1 837.218 1169.28 823.869 C 1173.1 833.342 1176.74 843.217 1180.39 852.78 L 1178.72 853.238 C 1175.06 852.312 1175.62 852.492 1172.63 853.936 C 1171.95 858.693 1172.3 861.434 1169.34 865.075 C 1164.7 868.326 1157.41 866.467 1152.66 864.169 C 1157.82 863.927 1163.73 863.99 1168.96 863.918 z"/>
<path transform="translate(0,0)" fill="rgb(25,126,232)" d="M 1102.33 794.279 C 1121.62 791.472 1139.59 804.694 1142.64 823.947 C 1145.69 843.201 1132.7 861.331 1113.49 864.63 C 1100.84 866.802 1088 862.001 1079.88 852.063 C 1071.76 842.126 1069.61 828.588 1074.26 816.626 C 1078.91 804.664 1089.63 796.127 1102.33 794.279 z"/>
<path transform="translate(0,0)" fill="rgb(255,255,255)" d="M 1093.04 842.658 C 1085.77 831.059 1087.45 814.251 1102.75 810.546 C 1107.99 809.301 1113.52 810.22 1118.07 813.095 C 1128.49 819.605 1127.66 832.91 1121.89 842.255 C 1112.38 851.9 1102.87 851.166 1093.04 842.658 z"/>
<path transform="translate(0,0)" fill="rgb(211,210,212)" d="M 1093.04 842.658 C 1085.77 831.059 1087.45 814.251 1102.75 810.546 C 1107.99 809.301 1113.52 810.22 1118.07 813.095 C 1128.49 819.605 1127.66 832.91 1121.89 842.255 C 1121.29 835.361 1120.76 825.609 1114.53 821.816 C 1097.4 811.394 1093.54 832.532 1093.04 842.658 z"/>
<path transform="translate(0,0)" fill="rgb(25,126,232)" d="M 932.198 794.335 C 951.535 791.371 969.641 804.565 972.743 823.881 C 975.845 843.196 962.781 861.396 943.488 864.636 C 923.999 867.909 905.574 854.682 902.44 835.171 C 899.307 815.659 912.664 797.329 932.198 794.335 z"/>
<path transform="translate(0,0)" fill="rgb(255,255,255)" d="M 930.889 810.267 C 940.593 809.182 947.931 809.738 953.341 819.137 C 956.137 824.042 956.826 829.87 955.25 835.291 C 953.305 841.9 950.111 844.888 944.296 847.977 C 918.803 854.711 910.241 823.374 930.889 810.267 z"/>
<path transform="translate(0,0)" fill="rgb(25,126,232)" d="M 1003.41 796.914 L 1004.05 795.379 C 1008.81 794.474 1015.05 794.814 1020.01 794.89 L 1020.09 821.934 L 1045.93 821.901 L 1046.06 794.922 L 1062.98 794.925 L 1063.1 807.769 C 1068.72 818.576 1063.75 847.747 1065.73 860.875 C 1066.28 864.498 1059.34 873.43 1054.97 874.909 C 1051.9 874.287 1053.06 874.873 1050.65 872.161 L 1055.37 870.647 C 1047.75 868.702 1044.65 870.438 1044.13 859.809 C 1043.81 853.255 1037.16 849.853 1032.29 846.33 C 1023.93 855.617 1022.54 867.296 1013.75 873.968 C 1002.26 873.905 1002.89 867.702 999.95 858.684 C 997.605 851.487 991.583 817.324 998.938 813.161 C 999.156 815.819 999.18 818.174 999.211 820.824 C 999.697 815.532 1000.04 809.647 999.935 804.347 C 999.936 804.407 1003.1 797.579 1003.41 796.914 z"/>
<path transform="translate(0,0)" fill="rgb(211,210,212)" d="M 1003.41 796.914 C 1002.46 817.832 1003 842.808 1003.09 864 L 1019.96 863.983 L 1020.05 835.947 L 1045.94 835.96 L 1046.09 863.994 L 1062.95 863.967 C 1062.98 846.248 1062.43 825.198 1063.1 807.769 C 1068.72 818.576 1063.75 847.747 1065.73 860.875 C 1066.28 864.498 1059.34 873.43 1054.97 874.909 C 1051.9 874.287 1053.06 874.873 1050.65 872.161 L 1055.37 870.647 C 1047.75 868.702 1044.65 870.438 1044.13 859.809 C 1043.81 853.255 1037.16 849.853 1032.29 846.33 C 1023.93 855.617 1022.54 867.296 1013.75 873.968 C 1002.26 873.905 1002.89 867.702 999.95 858.684 C 997.605 851.487 991.583 817.324 998.938 813.161 C 999.156 815.819 999.18 818.174 999.211 820.824 C 999.697 815.532 1000.04 809.647 999.935 804.347 C 999.936 804.407 1003.1 797.579 1003.41 796.914 z"/>
<path transform="translate(0,0)" fill="rgb(25,126,232)" d="M 1242.26 794.887 L 1284.7 794.929 C 1284.86 799.981 1285.08 802.945 1284.24 807.895 C 1282.29 809.669 1282.07 809.734 1281.25 812.152 C 1274.93 813.377 1271.07 803.588 1263.38 819.475 C 1265.63 821.737 1273.5 820.837 1277.95 821.302 C 1283.96 824.033 1281.99 828.859 1281.75 835.128 C 1278.68 837.027 1275.08 839.586 1271.67 840.354 C 1269.78 837.727 1270.55 837.897 1268.18 837.461 C 1265.38 839.639 1262.75 841.229 1261.46 844.503 C 1263.57 851.361 1278.37 848.786 1284.74 850.326 L 1284.77 864.067 C 1270.65 864.232 1256.32 864.114 1242.17 864.115 C 1241.94 841.039 1241.97 817.962 1242.26 794.887 z"/>
<path transform="translate(0,0)" fill="rgb(211,210,212)" d="M 1284.24 807.895 C 1282.29 809.669 1282.07 809.734 1281.25 812.152 C 1274.93 813.377 1271.07 803.588 1263.38 819.475 C 1265.63 821.737 1273.5 820.837 1277.95 821.302 C 1272.19 822.81 1265.24 822.382 1259.19 822.327 L 1259.14 808.486 C 1267.74 808.589 1275.68 808.857 1284.24 807.895 z"/>
<path transform="translate(0,0)" fill="rgb(211,210,212)" d="M 1281.75 835.128 C 1278.68 837.027 1275.08 839.586 1271.67 840.354 C 1269.78 837.727 1270.55 837.897 1268.18 837.461 C 1265.38 839.639 1262.75 841.229 1261.46 844.503 C 1263.57 851.361 1278.37 848.786 1284.74 850.326 C 1277.71 851.137 1266.51 850.659 1259.12 850.547 L 1259.13 835.478 C 1266.67 835.59 1274.22 835.473 1281.75 835.128 z"/>
<path transform="translate(0,0)" fill="rgb(25,126,232)" d="M 769.27 794.928 L 818.196 794.911 L 818.196 807.733 C 808.713 821.747 798.375 835.849 789.141 849.765 L 818.19 850.074 L 818.309 864.071 C 801.964 864.202 785.618 864.202 769.274 864.069 L 769.246 851.693 C 774.894 843.137 780.686 834.678 786.621 826.318 C 782.412 818.879 773.587 816.386 769.405 808.78 L 769.27 794.928 z"/>
<path transform="translate(0,0)" fill="rgb(211,210,212)" d="M 769.405 808.78 L 798.622 809.016 C 796.242 812.491 788.943 823.67 786.621 826.318 C 782.412 818.879 773.587 816.386 769.405 808.78 z"/>
<path transform="translate(0,0)" fill="rgb(25,126,232)" d="M 857.98 794.933 L 874.941 794.924 C 875.211 813.415 875.075 832.263 875.128 850.785 L 897.013 850.932 L 897.042 864.061 C 884.114 864.251 870.873 864.114 857.918 864.107 L 857.98 794.933 z"/>
<path transform="translate(0,0)" fill="rgb(25,126,232)" d="M 829.159 794.895 L 846.043 794.893 C 846.263 817.964 846.307 841.036 846.175 864.107 L 829.042 864.128 L 829.159 794.895 z"/>
</svg>