<?xml version="1.0" standalone="no"?>
<!DOCTYPE svg PUBLIC "-//W3C//DTD SVG 20010904//EN"
 "http://www.w3.org/TR/2001/REC-SVG-20010904/DTD/svg10.dtd">
<svg version="1.0" xmlns="http://www.w3.org/2000/svg"
 width="600.000000pt" height="338.000000pt" viewBox="0 0 600.000000 338.000000"
 preserveAspectRatio="xMidYMid meet">
<g transform="translate(0.000000,338.000000) scale(0.100000,-0.100000)"
fill="#000000" stroke="none">
<path d="M2419 2492 c-52 -53 -160 -165 -240 -248 -81 -82 -150 -160 -154
-173 -4 -14 -1 -31 9 -46 l16 -25 338 0 337 0 -378 -378 c-343 -343 -378 -381
-375 -408 2 -18 12 -33 28 -41 20 -10 224 -12 971 -10 919 2 948 3 968 21 21
19 21 24 19 338 -3 292 -2 318 14 318 24 0 48 28 48 55 0 17 -84 108 -327 353
l-328 330 -304 6 c-167 3 -359 6 -426 6 l-121 0 -95 -98z m97 69 c-10 -16 22
-20 35 -5 10 12 49 13 248 9 130 -4 310 -7 400 -8 146 -3 165 -5 177 -21 7
-11 11 -22 9 -26 -3 -4 3 -7 13 -6 9 0 16 -5 15 -11 -2 -7 3 -13 10 -13 6 0
21 -13 32 -29 10 -16 22 -29 26 -28 4 1 8 -2 9 -8 0 -5 10 -13 21 -17 11 -4
18 -11 16 -15 -4 -8 25 -40 41 -45 4 -2 6 -6 5 -10 -2 -5 4 -8 12 -8 8 0 15
-4 15 -10 0 -12 36 -50 48 -50 4 0 7 -4 7 -10 0 -5 3 -9 7 -7 11 3 37 -37 30
-48 -3 -5 2 -4 11 4 15 12 17 12 11 -3 -4 -11 -2 -16 7 -14 7 2 14 -4 14 -12
0 -8 6 -14 13 -13 7 2 12 -2 12 -7 0 -12 36 -50 48 -50 4 0 7 -6 7 -12 0 -7 6
-13 13 -13 6 0 12 -3 12 -7 0 -12 34 -45 42 -41 4 2 9 -1 13 -7 3 -5 1 -10 -6
-10 -18 0 -4 -11 18 -14 10 -2 17 -6 16 -9 -3 -8 29 -45 37 -42 3 1 15 -9 27
-22 22 -23 22 -24 4 -41 -11 -9 -31 -25 -46 -36 -19 -13 -24 -21 -16 -29 6 -6
11 -18 11 -26 0 -11 -3 -12 -8 -4 -4 6 -6 -116 -4 -270 2 -155 0 -292 -3 -304
l-5 -22 -945 2 c-520 1 -945 -1 -945 -5 0 -4 -7 -5 -15 -2 -8 4 -12 10 -9 15
3 5 1 9 -5 9 -6 0 -7 7 -4 17 5 12 3 14 -8 8 -8 -5 -6 1 5 13 10 12 21 20 25
19 3 -1 6 1 6 5 0 4 22 30 49 57 50 51 72 57 61 18 -5 -19 -5 -20 5 -4 6 9 8
22 4 28 -4 7 4 21 17 31 13 11 18 16 10 12 -9 -5 -12 -3 -7 4 4 7 16 12 26 12
10 0 22 4 25 10 4 6 -1 7 -12 3 -10 -3 20 32 67 80 46 47 87 85 91 84 4 -1 8
3 9 8 2 13 41 55 49 52 3 -1 7 3 9 8 1 6 24 31 49 57 45 46 48 47 66 30 10 -9
22 -16 26 -14 3 1 6 -4 6 -10 0 -7 -5 -12 -12 -11 -8 2 -10 -4 -6 -15 6 -15 5
-15 -10 -3 -9 7 -14 17 -11 22 3 5 1 17 -5 26 -8 15 -9 13 -7 -10 1 -15 6 -30
9 -34 13 -12 7 -25 -8 -19 -8 3 -14 2 -13 -2 4 -12 -35 -71 -43 -66 -4 2 -6
18 -4 34 2 16 -1 33 -7 36 -7 4 -8 3 -4 -5 4 -6 -6 -27 -23 -48 -24 -29 -28
-40 -19 -50 9 -11 6 -19 -11 -36 -16 -16 -20 -17 -16 -6 4 10 2 19 -2 22 -5 3
-9 -6 -9 -20 1 -15 -4 -28 -11 -30 -8 -3 -11 4 -8 18 l4 22 -24 -23 c-23 -22
-25 -48 -3 -34 6 4 9 1 6 -7 -3 -8 -13 -14 -24 -14 -12 0 -19 -7 -19 -19 0
-11 -6 -21 -14 -24 -8 -3 -11 0 -7 6 9 14 -21 9 -37 -7 -6 -7 -7 -11 -2 -9 10
3 15 -4 15 -23 0 -5 -4 -8 -9 -5 -5 3 -15 -2 -22 -12 -13 -15 -12 -16 4 -3 9
7 17 10 17 5 0 -5 -14 -17 -32 -27 -24 -14 -28 -15 -18 -2 19 23 6 18 -16 -7
-10 -12 -13 -18 -6 -14 6 4 12 4 12 -1 -1 -13 -24 -38 -37 -39 -28 -2 -33 -4
-33 -15 0 -8 6 -7 17 2 15 12 16 12 10 -4 -4 -11 -1 -20 8 -23 8 -4 13 -9 11
-13 -2 -3 378 -6 844 -6 514 0 846 4 842 9 -3 5 2 7 10 3 11 -4 18 2 22 16 9
33 12 667 4 654 -5 -8 -8 -6 -8 6 0 10 -63 81 -141 157 -92 91 -139 145 -136
154 4 10 1 13 -9 9 -14 -5 -154 129 -154 148 0 5 -5 9 -11 9 -6 0 -24 14 -41
30 -16 17 -37 30 -46 30 -17 0 -60 -38 -87 -75 -14 -20 -14 -20 -10 2 2 15 -1
20 -13 18 -9 -2 -19 -4 -21 -4 -3 -1 0 -6 7 -13 17 -17 15 -28 -4 -28 -11 0
-14 -5 -10 -16 5 -14 4 -15 -9 -4 -13 11 -14 10 -9 -4 3 -9 1 -16 -5 -16 -10
0 -15 13 -12 32 0 4 -6 5 -14 2 -13 -5 -13 -8 0 -21 15 -15 11 -38 -5 -28 -5
3 -12 0 -16 -6 -5 -8 -3 -9 6 -4 8 5 11 3 8 -6 -3 -8 -13 -14 -24 -14 -11 -1
-18 -7 -16 -15 4 -18 -20 -31 -35 -19 -9 8 -11 6 -8 -10 4 -24 -21 -54 -37
-45 -6 4 -8 2 -4 -4 7 -12 -41 -65 -64 -69 -10 -1 -16 7 -16 23 -2 19 1 22 10
14 7 -5 16 -6 20 -2 4 4 13 7 19 7 7 0 12 10 13 22 1 15 -3 20 -14 15 -11 -4
-12 -7 -4 -10 7 -2 12 -9 12 -14 0 -6 -3 -8 -7 -5 -3 4 -12 2 -19 -4 -8 -7
-14 -7 -19 1 -3 6 -11 7 -17 4 -7 -5 -8 -2 -4 5 5 7 14 10 22 7 8 -3 13 -2 13
2 -3 20 2 32 11 27 6 -4 10 -3 9 2 -3 19 2 23 20 14 21 -12 32 -5 24 15 -4 12
-8 12 -22 2 -14 -12 -15 -11 -2 5 8 10 20 16 27 13 7 -3 11 0 8 7 -2 7 10 26
28 42 31 28 32 29 9 3 -14 -16 -19 -28 -13 -28 6 0 14 5 17 10 4 6 10 8 15 5
5 -3 12 0 16 6 4 7 3 9 -4 5 -7 -4 -10 2 -9 14 1 12 7 18 14 16 7 -3 12 -2 12
2 -3 18 2 29 14 30 42 3 52 10 52 34 1 15 7 33 15 42 19 24 0 39 -52 42 -185
11 -579 15 -590 7 -19 -14 -60 -14 -55 0 2 7 12 11 21 10 16 -1 16 0 -1 17
-10 9 -22 15 -28 12 -5 -3 -4 2 4 11 14 18 26 23 17 8z m-16 -46 c-15 -18 -3
-38 19 -31 9 3 4 -3 -12 -15 -15 -11 -24 -26 -20 -32 4 -6 0 -8 -10 -4 -9 3
-19 2 -23 -4 -4 -6 -12 -5 -22 3 -15 12 -16 11 -3 -5 11 -14 16 -15 29 -5 9 7
6 -1 -6 -19 -12 -17 -31 -35 -42 -38 -11 -4 -18 -10 -15 -14 7 -12 -42 -54
-55 -46 -6 3 -9 1 -8 -6 2 -7 -6 -13 -17 -14 -11 0 -21 6 -21 13 -1 6 -2 14
-3 17 -2 9 -1 15 2 13 5 -5 35 27 31 33 -2 4 6 15 18 25 12 11 18 13 14 7 -4
-7 -4 -13 1 -13 4 0 23 24 42 53 18 28 30 43 27 33 -6 -16 -4 -17 9 -6 9 7 13
15 11 18 -3 2 3 12 12 21 11 10 12 12 2 6 -12 -8 -13 -7 -3 5 6 9 21 16 33 17
17 2 19 -1 10 -12z m413 -37 l288 -2 -183 -183 -183 -183 -321 -3 -321 -2 186
193 c174 182 187 193 216 188 16 -3 160 -6 318 -8z m947 -880 l0 -328 -857 0
-858 0 593 593 593 593 264 -266 265 -265 0 -327z m-690 819 c0 -2 -10 -12
-22 -23 l-23 -19 19 23 c18 21 26 27 26 19z m-883 -114 c-9 -9 13 -34 24 -27
13 8 11 -10 -3 -24 -15 -15 -29 -16 -25 -1 1 6 -5 14 -13 16 -13 4 -13 3 0 -6
8 -6 11 -11 6 -11 -5 0 -3 -6 3 -14 9 -11 9 -16 0 -22 -8 -5 -10 -3 -4 7 4 8
-2 4 -14 -8 -11 -12 -21 -28 -21 -34 0 -7 -11 -2 -25 11 l-24 23 20 29 c11 15
25 25 31 21 8 -4 9 0 5 11 -4 9 -3 15 2 12 5 -3 14 1 21 9 7 8 15 15 18 15 3
0 2 -3 -1 -7z m-71 -141 c-2 -9 -8 -18 -14 -20 -7 -2 -12 -10 -12 -18 0 -9 -5
-12 -12 -9 -7 4 -2 -3 11 -14 22 -20 34 -21 331 -21 257 0 311 2 323 15 8 8
17 11 21 8 3 -4 6 -2 6 4 0 6 10 23 22 38 18 23 22 25 30 11 5 -9 7 -20 3 -25
-3 -5 -1 -12 5 -16 15 -9 12 -19 -9 -32 -16 -10 -18 -8 -17 15 1 15 5 33 10
41 6 9 5 12 -5 9 -8 -3 -15 -15 -15 -27 -1 -12 -4 -24 -8 -28 -3 -3 -1 -12 5
-19 16 -20 -28 -65 -59 -59 -13 2 -22 1 -18 -2 3 -3 0 -13 -7 -21 -9 -13 -9
-14 1 -8 20 12 13 -9 -11 -32 -14 -13 -32 -20 -45 -17 -12 2 -20 0 -17 -5 10
-16 -12 -20 -25 -5 -10 12 -10 15 0 15 8 0 11 3 7 6 -3 3 -11 3 -17 -1 -8 -5
-6 -13 6 -26 16 -18 18 -18 38 -2 17 16 16 13 -4 -17 -29 -43 -35 -49 -28 -30
4 11 0 16 -12 16 -13 0 -16 -5 -11 -14 12 -22 -38 -67 -74 -67 -16 0 -33 4
-37 10 -4 5 -6 0 -5 -12 1 -18 4 -20 16 -10 11 9 15 9 19 -1 3 -10 7 -10 18
-1 8 6 14 8 14 3 0 -13 -57 -44 -65 -36 -4 4 -12 7 -17 7 -6 0 -13 6 -16 14
-3 9 0 11 8 6 9 -6 12 -4 8 7 -4 10 25 46 87 108 74 73 92 97 83 107 -6 7 -13
11 -15 9 -3 -3 -15 -1 -28 4 -15 6 -27 4 -35 -3 -10 -9 -11 -9 -6 1 7 11 -47
13 -288 10 -240 -2 -295 -1 -291 10 3 8 0 10 -6 6 -17 -10 1 39 20 54 9 8 10
10 2 6 -9 -4 -12 -3 -7 4 3 6 16 9 27 7 18 -4 19 -2 7 12 -9 12 -9 15 0 9 8
-4 12 -1 12 10 0 14 3 14 15 4 13 -11 14 -10 9 5 -5 13 -4 16 4 11 8 -5 10 -2
6 8 -4 9 1 18 10 22 9 3 13 11 9 18 -3 6 5 1 19 -12 14 -13 25 -31 24 -40z
m239 -529 c0 -10 -6 -26 -11 -36 -9 -16 -12 -16 -23 -4 -9 12 -9 17 0 23 8 5
9 3 4 -6 -5 -9 -4 -11 4 -6 6 4 9 12 6 17 -7 10 2 29 14 29 4 0 7 -8 6 -17z
m-108 -100 c-4 -3 -1 -13 6 -22 10 -14 10 -14 -4 -4 -9 7 -20 9 -25 5 -4 -4
-2 1 5 11 7 9 16 17 19 17 3 0 2 -3 -1 -7z m-76 -100 c13 -16 12 -17 -3 -4
-10 7 -18 15 -18 17 0 8 8 3 21 -13z"/>
<path d="M3291 2496 c-7 -8 -8 -17 -3 -20 14 -8 50 5 56 20 5 13 2 12 -16 -1
-29 -19 -44 -20 -28 0 7 8 10 15 7 15 -2 0 -10 -6 -16 -14z"/>
<path d="M3040 2286 c0 -3 9 -10 20 -16 11 -6 20 -8 20 -6 0 3 -9 10 -20 16
-11 6 -20 8 -20 6z"/>
<path d="M3780 2066 c0 -2 8 -10 18 -17 15 -13 16 -12 3 4 -13 16 -21 21 -21
13z"/>
<path d="M2499 1748 c-5 -9 -5 -48 -1 -43 8 7 13 45 7 45 -3 0 -6 -1 -6 -2z"/>
<path d="M2483 1675 c0 -8 4 -12 9 -9 4 3 8 9 8 15 0 5 -4 9 -8 9 -5 0 -9 -7
-9 -15z"/>
<path d="M2395 1640 c-10 -11 -14 -20 -9 -20 5 0 15 9 22 20 7 11 11 20 9 20
-2 0 -12 -9 -22 -20z"/>
<path d="M2330 1569 c0 -5 5 -7 10 -4 6 3 10 8 10 11 0 2 -4 4 -10 4 -5 0 -10
-5 -10 -11z"/>
<path d="M3914 1440 c0 -80 2 -112 3 -72 2 39 2 105 0 145 -1 39 -3 7 -3 -73z"/>
<path d="M2265 1510 c-27 -28 -44 -50 -37 -50 7 0 12 4 12 10 0 5 6 7 14 4 8
-3 17 -1 21 5 4 7 -1 9 -12 5 -10 -3 -1 10 20 31 21 20 37 38 35 41 -2 2 -26
-19 -53 -46z"/>
<path d="M2189 1399 l-24 -20 28 17 c15 9 27 18 27 20 0 8 -8 4 -31 -17z"/>
<path d="M2091 1335 c-31 -33 -31 -35 -9 -31 12 3 28 5 33 5 6 1 3 5 -5 11
-12 7 -12 12 4 29 32 35 12 23 -23 -14z"/>
<path d="M2041 1256 l-24 -31 28 27 c16 15 27 29 24 31 -2 3 -15 -10 -28 -27z"/>
<path d="M2055 1239 c-4 -6 -5 -12 -2 -15 2 -3 7 2 10 11 7 17 1 20 -8 4z"/>
<path d="M2405 2410 c-4 -6 -3 -10 2 -9 20 3 27 -2 13 -11 -9 -6 -10 -10 -3
-10 19 0 24 17 9 29 -10 9 -16 9 -21 1z"/>
<path d="M2362 2355 c-11 -13 -22 -21 -26 -18 -3 3 -6 4 -6 1 0 -3 6 -11 14
-17 10 -9 17 -7 27 6 9 11 10 14 2 9 -7 -4 -13 -2 -13 3 0 6 4 11 9 11 5 0 11
7 15 15 8 22 0 18 -22 -10z"/>
<path d="M3150 2062 c-32 -10 -40 -36 -40 -123 0 -115 4 -119 120 -119 112 0
120 8 120 123 0 70 -3 81 -25 103 -22 21 -32 24 -92 23 -38 -1 -75 -4 -83 -7z
m152 -17 c8 7 9 6 4 -2 -3 -6 -1 -13 6 -15 8 -3 13 -29 14 -74 2 -70 -8 -106
-29 -103 -37 4 -107 -2 -103 -10 4 -5 -3 -7 -14 -4 -11 3 -18 9 -15 13 3 4 -3
7 -13 6 -15 -1 -17 10 -18 87 -2 80 0 87 18 87 10 0 17 3 14 8 -2 4 25 5 60 2
38 -3 69 -1 76 5z"/>
<path d="M3448 2062 c-29 -9 -38 -37 -38 -123 0 -115 4 -119 119 -119 115 0
121 6 121 122 0 111 -11 123 -115 123 -40 0 -79 -1 -87 -3z m149 -28 c17 -3
23 -14 29 -50 8 -54 0 -113 -19 -131 -16 -17 -144 -20 -160 -4 -13 13 -22 120
-13 155 10 40 65 50 163 30z"/>
<path d="M3498 2033 c7 -3 16 -2 19 1 4 3 -2 6 -13 5 -11 0 -14 -3 -6 -6z"/>
<path d="M3370 1796 c0 -2 8 -10 18 -17 15 -13 16 -12 3 4 -13 16 -21 21 -21
13z"/>
<path d="M3132 1764 c-20 -14 -22 -23 -22 -108 0 -120 6 -126 118 -126 112 0
122 10 122 123 0 114 -12 127 -118 127 -54 0 -84 -5 -100 -16z m168 -17 c0 -5
4 -6 8 -3 4 2 8 -4 9 -14 1 -13 -3 -17 -15 -14 -9 2 -7 -1 6 -7 21 -12 23 -18
19 -74 -2 -34 -7 -67 -10 -72 -10 -16 -127 -16 -127 -1 0 9 -2 10 -8 2 -5 -8
-15 -8 -32 -2 -20 7 -22 11 -10 18 11 7 11 10 2 10 -9 0 -12 16 -10 58 2 45 6
57 19 56 9 -1 16 5 16 12 0 9 -7 10 -26 3 -25 -9 -25 -8 -7 6 11 8 16 15 12
15 -4 0 -5 3 -3 8 7 10 157 9 157 -1z"/>
<path d="M3150 1606 c0 -2 8 -10 18 -17 15 -13 16 -12 3 4 -13 16 -21 21 -21
13z"/>
<path d="M3432 1764 c-20 -14 -22 -23 -22 -108 0 -120 6 -126 118 -126 112 0
122 10 122 125 0 114 -10 125 -118 125 -54 0 -84 -5 -100 -16z m78 -12 c0 -5
23 -6 50 -2 48 6 76 -2 48 -13 -8 -4 -7 -6 4 -6 13 -1 16 -12 16 -66 0 -39 -5
-65 -11 -65 -7 0 -7 -4 1 -12 8 -8 9 -15 1 -25 -16 -19 -153 -18 -172 2 -8 8
-16 12 -18 10 -3 -2 -2 137 1 153 0 1 0 5 -1 9 0 4 8 10 18 14 25 10 63 11 63
1z"/>
<path d="M3468 1743 c7 -3 16 -2 19 1 4 3 -2 6 -13 5 -11 0 -14 -3 -6 -6z"/>
<path d="M2211 2223 c-1 -17 16 -25 25 -12 4 7 3 9 -4 5 -5 -3 -13 0 -15 6 -4
9 -6 10 -6 1z"/>
<path d="M2175 2172 c3 -3 -1 -12 -8 -21 -10 -14 -10 -14 4 -4 9 7 18 11 21 8
2 -3 5 1 5 8 0 8 -6 14 -14 14 -7 0 -11 -3 -8 -5z"/>
<path d="M2136 2117 c3 -10 9 -15 12 -12 3 3 0 11 -7 18 -10 9 -11 8 -5 -6z"/>
<path d="M2680 1921 c0 -6 4 -13 10 -16 6 -3 7 1 4 9 -7 18 -14 21 -14 7z"/>
<path d="M2654 1899 c-3 -6 -2 -15 3 -20 5 -5 9 -1 9 11 0 23 -2 24 -12 9z"/>
<path d="M2629 1878 c-13 -43 9 -68 35 -40 13 15 13 19 2 19 -8 0 -14 -4 -13
-8 1 -4 -2 -6 -8 -5 -5 0 -8 9 -7 19 3 13 -5 26 -9 15z"/>
<path d="M2592 1837 c-8 -10 -6 -13 7 -13 11 0 17 6 14 13 -3 7 -6 13 -8 13
-1 0 -7 -6 -13 -13z"/>
<path d="M2250 1030 c0 -17 7 -20 45 -20 25 0 45 5 45 10 0 6 8 10 18 10 13 0
14 -2 3 -9 -7 -5 -9 -11 -5 -13 5 -3 3 -3 -4 -1 -9 2 -11 -4 -7 -20 4 -14 3
-18 -3 -9 -6 10 -20 -2 -51 -43 -59 -78 -54 -90 37 -90 69 0 72 1 72 24 0 22
-3 23 -44 18 -34 -5 -45 -3 -50 9 -3 8 -2 12 3 9 12 -7 91 103 91 127 0 16 -9
18 -75 18 -68 0 -75 -2 -75 -20z m58 -158 c2 -7 -1 -12 -7 -12 -6 0 -11 5 -11
11 0 5 -5 7 -12 3 -7 -4 -8 -3 -4 5 9 14 28 10 34 -7z"/>
<path d="M2430 945 l0 -105 25 0 25 0 0 105 0 105 -25 0 -25 0 0 -105z m27
-37 c-3 -8 -6 -5 -6 6 -1 11 2 17 5 13 3 -3 4 -12 1 -19z"/>
<path d="M2510 946 l0 -104 60 0 c52 0 60 2 60 19 0 15 -7 19 -35 19 l-35 0 0
85 c0 84 0 85 -25 85 l-25 0 0 -104z"/>
<path d="M2682 1025 c-38 -32 -48 -72 -28 -118 29 -71 108 -87 162 -33 94 94
-33 236 -134 151z m38 -9 c0 -2 -9 -6 -20 -9 -11 -3 -18 -1 -14 4 5 9 34 13
34 5z m85 -14 c-3 -3 -11 0 -18 7 -9 10 -8 11 6 5 10 -3 15 -9 12 -12z m-25
-12 c38 -38 16 -100 -35 -100 -54 0 -72 90 -22 110 32 13 35 12 57 -10z m45
-18 c-3 -3 -11 0 -18 7 -9 10 -8 11 6 5 10 -3 15 -9 12 -12z m-125 -83 c0 -6
-4 -7 -10 -4 -5 3 -10 11 -10 16 0 6 5 7 10 4 6 -3 10 -11 10 -16z m35 -27
c-3 -3 -11 0 -18 7 -9 10 -8 11 6 5 10 -3 15 -9 12 -12z"/>
<path d="M2940 945 l0 -105 25 0 c23 0 25 4 25 45 l0 45 40 0 40 0 -7 -46 -6
-46 29 4 c16 2 28 6 27 11 -2 4 -3 50 -3 102 l0 95 -26 0 c-24 0 -26 -3 -22
-39 3 -39 3 -39 -34 -43 l-38 -4 0 43 c0 39 -2 43 -25 43 l-25 0 0 -105z m40
-2 c0 -7 -5 -13 -12 -13 -6 0 -9 3 -5 6 3 3 1 18 -4 33 -9 24 -8 25 6 7 8 -11
15 -26 15 -33z m116 7 c0 -22 -2 -23 -31 -10 -17 7 -17 9 -2 9 9 1 17 6 17 11
0 6 4 10 8 10 4 0 8 -9 8 -20z m-4 -52 c-7 -7 -12 -8 -12 -2 0 14 12 26 19 19
2 -3 -1 -11 -7 -17z"/>
<path d="M3173 1015 c-32 -32 -35 -40 -30 -77 8 -59 45 -93 102 -93 63 0 98
35 99 100 1 41 -3 50 -32 76 -47 42 -93 40 -139 -6z m112 -18 c16 -1 16 -59 0
-84 -28 -42 -95 -20 -95 31 0 39 37 71 70 59 8 -3 20 -6 25 -6z m42 -56 c-1
-16 -4 -27 -7 -24 -8 8 -7 53 2 53 4 0 6 -13 5 -29z m-152 -12 c-4 -6 4 -23
16 -37 l24 -27 -27 24 c-28 25 -37 51 -17 51 5 0 7 -5 4 -11z m125 -53 c0 -2
-11 -6 -25 -8 -13 -3 -22 -1 -19 3 5 9 44 13 44 5z"/>
<path d="M3376 948 c1 -102 2 -103 25 -103 22 0 24 3 21 45 -4 58 -11 82 -22
75 -14 -8 -5 44 10 58 10 10 12 9 7 -5 -4 -12 -1 -18 8 -18 9 0 12 -8 9 -26
-3 -18 -1 -23 7 -18 8 4 9 3 5 -5 -4 -6 0 -34 9 -61 24 -71 47 -68 73 10 11
32 18 67 15 78 -5 20 20 47 35 38 5 -3 8 -20 6 -37 -5 -38 -14 -52 -14 -21 0
11 -3 23 -7 25 -5 3 -7 -27 -6 -66 1 -66 3 -72 22 -72 21 0 22 5 24 103 l2
102 -30 0 c-28 0 -32 -5 -52 -62 -13 -35 -20 -73 -17 -84 8 -29 -15 -42 -33
-19 -9 14 -10 21 -2 26 9 5 5 26 -11 73 -22 62 -26 66 -54 66 l-31 0 1 -102z
m31 -20 c-3 -8 -6 -5 -6 6 -1 11 2 17 5 13 3 -3 4 -12 1 -19z m177 -32 c-3
-15 -8 -25 -11 -23 -2 3 -1 17 3 31 3 15 8 25 11 23 2 -3 1 -17 -3 -31z m-176
-17 c-3 -8 -7 -3 -11 10 -4 17 -3 21 5 13 5 -5 8 -16 6 -23z"/>
<path d="M3640 946 l0 -104 60 1 c54 1 60 3 60 22 0 18 -5 20 -35 17 -32 -4
-35 -2 -35 22 0 23 4 26 35 26 28 0 35 4 35 20 0 14 -7 20 -24 20 -32 0 -57
-10 -51 -20 3 -5 1 -11 -5 -15 -5 -3 -10 1 -10 9 0 8 5 18 10 21 19 12 11 38
-10 32 -11 -3 -20 -4 -20 -2 0 9 33 35 43 35 7 0 6 -4 -3 -10 -11 -7 -4 -10
28 -10 35 0 42 3 42 20 0 18 -7 20 -60 20 l-60 0 0 -104z"/>
<path d="M3480 895 c0 -8 4 -15 8 -15 5 0 9 7 9 15 0 8 -4 15 -9 15 -4 0 -8
-7 -8 -15z"/>
<path d="M2823 845 c0 -8 4 -12 9 -9 5 3 6 10 3 15 -9 13 -12 11 -12 -6z"/>
</g>
</svg>
